<svg width="61" height="60" viewBox="0 0 61 60" fill="none" xmlns="http://www.w3.org/2000/svg">
<path opacity="0.21" fill-rule="evenodd" clip-rule="evenodd" d="M0 30V37C0 49.7025 10.2974 60 23 60H30.0791H37.1582C49.8607 60 60.1582 49.7025 60.1582 37V30V23C60.1582 10.2975 49.8607 0 37.1582 0H30.0791H23C10.2974 0 0 10.2975 0 23V30Z" fill="#FEC53D"/>
<path fill-rule="evenodd" clip-rule="evenodd" d="M15.0395 24.3165L27.974 31.7646C28.1133 31.8448 28.2593 31.9027 28.408 31.9395V46.3847L15.962 39.0385C15.3902 38.701 15.0395 38.0876 15.0395 37.4249V24.3165ZM45.1186 24.1185V37.4249C45.1186 38.0876 44.7679 38.701 44.1961 39.0385L31.7501 46.3847V31.8129C31.7805 31.7978 31.8105 31.7817 31.8403 31.7646L45.1186 24.1185Z" fill="#FEC53D"/>
<path opacity="0.499209" fill-rule="evenodd" clip-rule="evenodd" d="M15.4458 20.7014C15.6038 20.5024 15.8032 20.3343 16.0357 20.2108L29.1953 13.2201C29.7477 12.9266 30.4104 12.9266 30.9628 13.2201L44.1224 20.2108C44.3016 20.306 44.4612 20.4277 44.5973 20.5697L30.1692 28.8778C30.0743 28.9325 29.9868 28.995 29.9071 29.064C29.8274 28.995 29.7399 28.9325 29.6451 28.8778L15.4458 20.7014Z" fill="#FEC53D"/>
</svg>
