<svg width="61" height="60" viewBox="0 0 61 60" fill="none" xmlns="http://www.w3.org/2000/svg">
<path opacity="0.21" fill-rule="evenodd" clip-rule="evenodd" d="M0 30V37C0 49.7025 10.2974 60 23 60H30.0791H37.1582C49.8607 60 60.1582 49.7025 60.1582 37V30V23C60.1582 10.2975 49.8607 0 37.1582 0H30.0791H23C10.2974 0 0 10.2975 0 23V30Z" fill="#4AD991"/>
<path d="M19.1614 40.8889H42.5563C43.4176 40.8889 44.1159 41.5853 44.1159 42.4444C44.1159 43.3036 43.4176 44 42.5563 44H17.6018C16.7404 44 16.0421 43.3036 16.0421 42.4444V17.5556C16.0421 16.6964 16.7404 16 17.6018 16C18.4631 16 19.1614 16.6964 19.1614 17.5556V40.8889Z" fill="#4AD991"/>
<path opacity="0.5" d="M24.9783 34.175C24.3891 34.8018 23.4021 34.8335 22.7737 34.2459C22.1453 33.6584 22.1135 32.6739 22.7026 32.0472L28.5513 25.825C29.1211 25.2188 30.0678 25.1663 30.7015 25.7056L35.3177 29.6344L41.3322 22.0361C41.8659 21.3618 42.8467 21.2467 43.5227 21.7791C44.1988 22.3114 44.3142 23.2896 43.7804 23.9639L36.762 32.8305C36.2138 33.5231 35.1984 33.6227 34.5254 33.0499L29.809 29.0358L24.9783 34.175Z" fill="#4AD991"/>
</svg>
