<svg width="71" height="70" viewBox="0 0 71 70" fill="none" xmlns="http://www.w3.org/2000/svg">
<ellipse cx="35.0307" cy="35" rx="35.0307" ry="35" fill="#E7EDFF"/>
<path d="M32 23.1562C32 22.3357 32.3161 21.5488 32.8787 20.9686C33.4413 20.3884 34.2044 20.0625 35 20.0625C35.7956 20.0625 36.5587 20.3884 37.1213 20.9686C37.6839 21.5488 38 22.3357 38 23.1562C38 23.9768 37.6839 24.7637 37.1213 25.3439C36.5587 25.9241 35.7956 26.25 35 26.25C34.2044 26.25 33.4413 25.9241 32.8787 25.3439C32.3161 24.7637 32 23.9768 32 23.1562ZM29 32.4375C29 31.2967 29.8937 30.375 31 30.375H35C36.1062 30.375 37 31.2967 37 32.4375V46.875H39C40.1062 46.875 41 47.7967 41 48.9375C41 50.0783 40.1062 51 39 51H31C29.8937 51 29 50.0783 29 48.9375C29 47.7967 29.8937 46.875 31 46.875H33V34.5H31C29.8937 34.5 29 33.5783 29 32.4375Z" fill="#396AFF"/>
</svg>
