<svg width="71" height="70" viewBox="0 0 71 70" fill="none" xmlns="http://www.w3.org/2000/svg">
<ellipse cx="35.0307" cy="35" rx="35.0307" ry="35" fill="#E7EDFF"/>
<g clip-path="url(#clip0_10_1546)">
<path d="M26.7857 27.75C26.7857 29.8054 27.5985 31.7767 29.0452 33.2301C30.4919 34.6835 32.454 35.5 34.5 35.5C36.546 35.5 38.5081 34.6835 39.9548 33.2301C41.4015 31.7767 42.2143 29.8054 42.2143 27.75C42.2143 25.6946 41.4015 23.7233 39.9548 22.2699C38.5081 20.8165 36.546 20 34.5 20C32.454 20 30.4919 20.8165 29.0452 22.2699C27.5985 23.7233 26.7857 25.6946 26.7857 27.75ZM32.481 39.8715L33.602 41.7484L31.5951 49.2502L29.4254 40.3559C29.3049 39.8654 28.8348 39.5445 28.3467 39.6717C24.1279 40.7312 21 44.5699 21 49.1412C21 50.1705 21.8317 51 22.8502 51H30.7875C30.7875 51 30.7875 51 30.7935 51H31.125H37.875H38.2065C38.2065 51 38.2065 51 38.2125 51H46.1498C47.1743 51 48 50.1645 48 49.1412C48 44.5699 44.8721 40.7312 40.6533 39.6717C40.1652 39.5506 39.6951 39.8715 39.5746 40.3559L37.4049 49.2502L35.398 41.7484L36.519 39.8715C36.9047 39.2236 36.4406 38.4062 35.6933 38.4062H34.5H33.3127C32.5654 38.4062 32.1013 39.2297 32.4871 39.8715H32.481Z" fill="#396AFF"/>
</g>
<defs>
<clipPath id="clip0_10_1546">
<rect width="27" height="31" fill="white" transform="translate(21 20)"/>
</clipPath>
</defs>
</svg>
