<svg width="71" height="70" viewBox="0 0 71 70" fill="none" xmlns="http://www.w3.org/2000/svg">
<ellipse cx="35.0307" cy="35" rx="35.0307" ry="35" fill="#E7EDFF"/>
<g clip-path="url(#clip0_10_1559)">
<path d="M30.3 20C32.3156 20 34.2487 20.7902 35.674 22.1967C37.0993 23.6032 37.9 25.5109 37.9 27.5C37.9 29.4891 37.0993 31.3968 35.674 32.8033C34.2487 34.2098 32.3156 35 30.3 35C28.2844 35 26.3513 34.2098 24.926 32.8033C23.5007 31.3968 22.7 29.4891 22.7 27.5C22.7 25.5109 23.5007 23.6032 24.926 22.1967C26.3513 20.7902 28.2844 20 30.3 20ZM27.5866 37.8125H33.0134C33.7141 37.8125 34.4028 37.8828 35.0619 38.0059C34.9372 39.0898 35.5012 40.0918 36.3562 40.6309C35.3706 41.252 34.7709 42.4824 35.1687 43.7539C35.4062 44.5098 35.7269 45.248 36.1425 45.957C36.5581 46.666 37.045 47.3105 37.5912 47.8906C38.5234 48.8809 39.9425 48.9688 40.9875 48.4004V48.4531C40.9875 48.9922 41.1478 49.5371 41.4566 49.9941L18.7634 50C17.7897 50 17 49.2207 17 48.2598C17 42.4883 21.7381 37.8125 27.5866 37.8125ZM42.8875 32.7852C42.8875 32.375 43.1547 32.0059 43.5584 31.918C44.1819 31.7773 44.835 31.7012 45.5 31.7012C46.165 31.7012 46.8181 31.7773 47.4416 31.918C47.8453 32.0059 48.1125 32.375 48.1125 32.7852V34.5781C48.5816 34.7773 49.0269 35.0293 49.4366 35.3281L50.915 34.4902C51.2772 34.2852 51.7284 34.332 52.0134 34.6309C52.4647 35.1055 52.8625 35.6387 53.2069 36.2246C53.5513 36.8105 53.8184 37.4199 54.0084 38.041C54.1331 38.4336 53.9431 38.8438 53.5809 39.0488L52.0966 39.8926C52.1203 40.127 52.1381 40.3672 52.1381 40.6133C52.1381 40.8594 52.1262 41.0938 52.0966 41.334L53.5809 42.1777C53.9431 42.3828 54.1272 42.793 54.0084 43.1855C53.8125 43.8066 53.5453 44.416 53.2069 45.002C52.8684 45.5879 52.4647 46.1211 52.0134 46.5957C51.7284 46.8945 51.2713 46.9414 50.915 46.7363L49.4366 45.8984C49.0269 46.1973 48.5875 46.4492 48.1125 46.6484V48.4414C48.1125 48.8516 47.8453 49.2207 47.4416 49.3086C46.8181 49.4492 46.165 49.5254 45.5 49.5254C44.835 49.5254 44.1819 49.4492 43.5584 49.3086C43.1547 49.2207 42.8875 48.8516 42.8875 48.4414V46.6543C42.4125 46.4551 41.9613 46.2031 41.5516 45.8984L40.085 46.7363C39.7228 46.9414 39.2716 46.8945 38.9866 46.5957C38.5353 46.1211 38.1375 45.5879 37.7931 45.002C37.4487 44.416 37.1816 43.8066 36.9916 43.1855C36.8669 42.793 37.0569 42.3828 37.4191 42.1777L38.8916 41.3398C38.8678 41.0996 38.85 40.8594 38.85 40.6133C38.85 40.3672 38.8619 40.127 38.8916 39.8867L37.4131 39.043C37.0509 38.8379 36.8669 38.4277 36.9856 38.0352C37.1816 37.4141 37.4428 36.8047 37.7872 36.2188C38.1316 35.6328 38.5294 35.0996 38.9806 34.625C39.2656 34.3262 39.7169 34.2793 40.0791 34.4844L41.5516 35.3223C41.9613 35.0234 42.4125 34.7715 42.8875 34.5664V32.7793V32.7852ZM48.3559 40.6074C48.3735 40.2269 48.3128 39.8468 48.1773 39.4901C48.0419 39.1334 47.8346 38.8074 47.5679 38.532C47.3013 38.2566 46.9808 38.0374 46.6259 37.8876C46.271 37.7378 45.889 37.6606 45.503 37.6606C45.117 37.6606 44.735 37.7378 44.38 37.8876C44.0251 38.0374 43.7047 38.2566 43.438 38.532C43.1713 38.8074 42.964 39.1334 42.8286 39.4901C42.6932 39.8468 42.6324 40.2269 42.65 40.6074C42.6324 40.988 42.6932 41.3681 42.8286 41.7248C42.964 42.0815 43.1713 42.4074 43.438 42.6828C43.7047 42.9583 44.0251 43.1775 44.38 43.3273C44.735 43.477 45.117 43.5543 45.503 43.5543C45.889 43.5543 46.271 43.477 46.6259 43.3273C46.9808 43.1775 47.3013 42.9583 47.5679 42.6828C47.8346 42.4074 48.0419 42.0815 48.1773 41.7248C48.3128 41.3681 48.3735 40.988 48.3559 40.6074Z" fill="#396AFF"/>
</g>
<defs>
<clipPath id="clip0_10_1559">
<rect width="38" height="30" fill="white" transform="translate(17 19)"/>
</clipPath>
</defs>
</svg>
